<svg width="24" height="24" viewBox="0 0 24 24" fill="none" xmlns="http://www.w3.org/2000/svg">
    <path fill-rule="evenodd" clip-rule="evenodd" d="M11.9998 5.02325C11.5374 5.02325 11.1626 4.64842 11.1626 4.18604L11.1626 0.837206C11.1626 0.374828 11.5374 -3.79831e-06 11.9998 -3.7781e-06C12.4622 -3.75789e-06 12.837 0.374828 12.837 0.837206L12.837 4.18604C12.837 4.64842 12.4622 5.02325 11.9998 5.02325Z" fill="#FEFEFE"/>
    <path opacity="0.8" fill-rule="evenodd" clip-rule="evenodd" d="M11.9998 24C11.5374 24 11.1626 23.6252 11.1626 23.1628L11.1626 19.814C11.1626 19.3516 11.5374 18.9767 11.9998 18.9767C12.4622 18.9767 12.837 19.3516 12.837 19.814L12.837 23.1628C12.837 23.6252 12.4622 24 11.9998 24Z" fill="#FEFEFE"/>
    <path fill-rule="evenodd" clip-rule="evenodd" d="M18.9768 12.0001C18.9768 11.5377 19.3516 11.1628 19.814 11.1628L23.1629 11.1628C23.6252 11.1628 24.0001 11.5377 24.0001 12.0001C24.0001 12.4624 23.6252 12.8373 23.1629 12.8373L19.814 12.8373C19.3516 12.8373 18.9768 12.4624 18.9768 12.0001Z" fill="#FEFEFE"/>
    <path opacity="0.4" fill-rule="evenodd" clip-rule="evenodd" d="M-7.54784e-08 12.0001C-3.37928e-08 11.5377 0.374831 11.1628 0.837209 11.1628L4.18605 11.1628C4.64842 11.1628 5.02326 11.5377 5.02326 12.0001C5.02326 12.4624 4.64842 12.8373 4.18605 12.8373L0.837209 12.8373C0.374831 12.8373 -1.17164e-07 12.4624 -7.54784e-08 12.0001Z" fill="#FEFEFE"/>
    <path fill-rule="evenodd" clip-rule="evenodd" d="M16.9333 7.06667C16.6064 6.73972 16.6064 6.20962 16.9333 5.88267L19.3013 3.51469C19.6282 3.18774 20.1583 3.18774 20.4853 3.51469C20.8122 3.84164 20.8122 4.37173 20.4853 4.69868L18.1173 7.06667C17.7903 7.39362 17.2603 7.39362 16.9333 7.06667Z" fill="#FEFEFE"/>
    <path opacity="0.6" fill-rule="evenodd" clip-rule="evenodd" d="M3.51485 20.4856C3.1879 20.1586 3.1879 19.6285 3.51485 19.3016L5.88283 16.9336C6.20978 16.6066 6.73988 16.6066 7.06683 16.9336C7.39378 17.2605 7.39378 17.7906 7.06683 18.1176L4.69884 20.4856C4.37189 20.8125 3.8418 20.8125 3.51485 20.4856Z" fill="#FEFEFE"/>
    <path opacity="0.2" fill-rule="evenodd" clip-rule="evenodd" d="M7.06661 7.06663C6.73966 7.39358 6.20956 7.39358 5.88261 7.06663L3.51463 4.69865C3.18768 4.3717 3.18768 3.8416 3.51463 3.51465C3.84158 3.1877 4.37167 3.1877 4.69862 3.51465L7.06661 5.88264C7.39356 6.20959 7.39356 6.73968 7.06661 7.06663Z" fill="#FEFEFE"/>
    <path fill-rule="evenodd" clip-rule="evenodd" d="M20.4851 20.4856C20.1581 20.8125 19.628 20.8125 19.3011 20.4856L16.9331 18.1176C16.6061 17.7906 16.6061 17.2606 16.9331 16.9336C17.26 16.6066 17.7901 16.6066 18.1171 16.9336L20.4851 19.3016C20.812 19.6285 20.812 20.1586 20.4851 20.4856Z" fill="#FEFEFE"/>
    </svg>
    