<svg width="27" height="29" viewBox="0 0 27 29" fill="none" xmlns="http://www.w3.org/2000/svg">
    <rect width="27" height="29" rx="4" fill="#4B7FD6" fill-opacity="0.5"/>
    <path d="M15.5 15.167H16.5V17.047L18.1267 17.987L17.6267 18.8537L15.5 17.627V15.167ZM18.1667 11.8337H8.83333V19.167H11.9467C11.66 18.5603 11.5 17.8803 11.5 17.167C11.5 15.9293 11.9917 14.7423 12.8668 13.8672C13.742 12.992 14.929 12.5003 16.1667 12.5003C16.88 12.5003 17.56 12.6603 18.1667 12.947V11.8337ZM8.83333 20.5003C8.47971 20.5003 8.14057 20.3598 7.89052 20.1098C7.64048 19.8598 7.5 19.5206 7.5 19.167V9.83366C7.5 9.09366 8.09333 8.50033 8.83333 8.50033H9.5V7.16699H10.8333V8.50033H16.1667V7.16699H17.5V8.50033H18.1667C18.5203 8.50033 18.8594 8.6408 19.1095 8.89085C19.3595 9.1409 19.5 9.48004 19.5 9.83366V13.9003C20.3267 14.7403 20.8333 15.8937 20.8333 17.167C20.8333 18.4047 20.3417 19.5917 19.4665 20.4668C18.5913 21.342 17.4043 21.8337 16.1667 21.8337C14.8933 21.8337 13.74 21.327 12.9 20.5003H8.83333ZM16.1667 13.9337C15.3091 13.9337 14.4867 14.2743 13.8804 14.8807C13.274 15.487 12.9333 16.3095 12.9333 17.167C12.9333 18.9537 14.38 20.4003 16.1667 20.4003C16.5913 20.4003 17.0117 20.3167 17.404 20.1542C17.7963 19.9917 18.1527 19.7535 18.453 19.4533C18.7532 19.1531 18.9914 18.7966 19.1539 18.4043C19.3164 18.012 19.4 17.5916 19.4 17.167C19.4 15.3803 17.9533 13.9337 16.1667 13.9337Z" fill="#FEFEFE"/>
    </svg>
    