<svg width="18" height="22" viewBox="0 0 18 22" fill="none" xmlns="http://www.w3.org/2000/svg">
    <path d="M16.444 2.06141H11.6967C11.507 1.47468 11.1449 0.964716 10.6617 0.603452C10.1785 0.242188 9.59839 0.0478516 9.00331 0.0478516C8.40823 0.0478516 7.82817 0.242188 7.34493 0.603452C6.86169 0.964716 6.49966 1.47468 6.30991 2.06141H1.74727C1.5858 2.03712 1.42121 2.04872 1.26437 2.09546C1.10753 2.14219 0.961995 2.223 0.837378 2.33254C0.71276 2.44209 0.611891 2.57788 0.541426 2.73096C0.470961 2.88403 0.432502 3.05091 0.428589 3.22059V20.7934C0.429452 20.9465 0.4593 21.098 0.516429 21.2391C0.573557 21.3802 0.656847 21.5083 0.761543 21.6159C0.866239 21.7236 0.990291 21.8087 1.12661 21.8665C1.26294 21.9242 1.40886 21.9535 1.55606 21.9526H16.444C16.5912 21.9535 16.7371 21.9242 16.8734 21.8665C17.0097 21.8087 17.1338 21.7236 17.2385 21.6159C17.3432 21.5083 17.4265 21.3802 17.4836 21.2391C17.5407 21.098 17.5706 20.9465 17.5714 20.7934V3.22059C17.5706 3.06746 17.5407 2.91601 17.4836 2.77488C17.4265 2.63376 17.3432 2.50572 17.2385 2.39808C17.1338 2.29044 17.0097 2.20531 16.8734 2.14754C16.7371 2.08978 16.5912 2.06051 16.444 2.06141ZM4.57584 4.11912C4.57584 3.93721 4.64531 3.76275 4.76896 3.63411C4.89261 3.50548 5.06031 3.43322 5.23518 3.43322H7.50331V3.0011C7.50331 2.57997 7.66413 2.17609 7.95038 1.87831C8.23663 1.58053 8.62487 1.41323 9.02969 1.41323C9.43451 1.41323 9.82274 1.58053 10.109 1.87831C10.3952 2.17609 10.5561 2.57997 10.5561 3.0011V3.46751H12.8242C12.9991 3.46751 13.1668 3.53978 13.2904 3.66841C13.4141 3.79704 13.4835 3.9715 13.4835 4.15342V5.38804H4.54947L4.57584 4.11912ZM14.1495 10.45L8.13628 16.7054L4.68134 13.1113C4.50647 12.9294 4.40823 12.6827 4.40823 12.4254C4.40823 12.1681 4.50647 11.9214 4.68134 11.7395C4.8562 11.5576 5.09338 11.4554 5.34068 11.4554C5.58798 11.4554 5.82515 11.5576 6.00002 11.7395L8.14947 13.9755L12.8572 9.0782C13.032 8.89629 13.2692 8.79409 13.5165 8.79409C13.7638 8.79409 14.001 8.89629 14.1758 9.0782C14.3507 9.26011 14.4489 9.50684 14.4489 9.7641C14.4489 10.0214 14.3507 10.2681 14.1758 10.45H14.1495Z" fill="#FEFEFE"/>
    </svg>
    