<svg width="40" height="40" viewBox="0 0 40 40" fill="none" xmlns="http://www.w3.org/2000/svg">
    <rect width="40" height="40" rx="10" fill="#FF8700"/>
    <path d="M16 29C15.7167 29 15.479 28.904 15.287 28.712C15.0957 28.5207 15 28.2833 15 28V25H25V28C25 28.2833 24.904 28.5207 24.712 28.712C24.5207 28.904 24.2833 29 24 29H16ZM27 16V19C27 19.05 26.9833 19.1167 26.95 19.2L26.2 23C26.15 23.3 26.0127 23.5417 25.788 23.725C25.5627 23.9083 25.3 24 25 24H15C14.7 24 14.4377 23.9083 14.213 23.725C13.9877 23.5417 13.85 23.3 13.8 23L13.05 19.2C13.0167 19.1167 13 19.05 13 19V13C13 12.45 13.196 11.979 13.588 11.587C13.9793 11.1957 14.45 11 15 11H23C23.55 11 24.021 11.1957 24.413 11.587C24.8043 11.979 25 12.45 25 13V16C25 15.7167 25.096 15.479 25.288 15.287C25.4793 15.0957 25.7167 15 26 15C26.2833 15 26.5207 15.0957 26.712 15.287C26.904 15.479 27 15.7167 27 16ZM16 18H22V15H16V18Z" fill="#FEFEFE"/>
    </svg>
    