<svg width="40" height="40" viewBox="0 0 40 40" fill="none" xmlns="http://www.w3.org/2000/svg">
    <rect width="40" height="40" rx="10" fill="#DD8491"/>
    <path d="M27.9198 25.0705L24.8148 13.4755C24.7322 13.1682 24.531 12.9062 24.2553 12.7473C23.9796 12.5884 23.6521 12.5455 23.3448 12.628L21.0273 13.2505L20.9523 13.273C20.8405 13.1263 20.6964 13.0074 20.5312 12.9255C20.3661 12.8435 20.1842 12.8007 19.9998 12.8005H17.5998C17.3887 12.801 17.1815 12.858 16.9998 12.9655C16.8181 12.858 16.6109 12.801 16.3998 12.8005H13.9998C13.6815 12.8005 13.3763 12.9269 13.1513 13.1519C12.9262 13.377 12.7998 13.6822 12.7998 14.0005V26.0005C12.7998 26.3187 12.9262 26.6239 13.1513 26.849C13.3763 27.074 13.6815 27.2005 13.9998 27.2005H16.3998C16.6109 27.1999 16.8181 27.1429 16.9998 27.0355C17.1815 27.1429 17.3887 27.1999 17.5998 27.2005H19.9998C20.3181 27.2005 20.6233 27.074 20.8483 26.849C21.0734 26.6239 21.1998 26.3187 21.1998 26.0005V18.5305L23.2848 26.308C23.3527 26.5642 23.5037 26.7908 23.714 26.9523C23.9243 27.1138 24.1822 27.201 24.4473 27.2005C24.5508 27.1987 24.6539 27.1861 24.7548 27.163L27.0723 26.5405C27.3796 26.4579 27.6415 26.2566 27.8004 25.9809C27.9594 25.7053 28.0023 25.3778 27.9198 25.0705ZM23.6523 13.7905L24.1248 15.523L21.8073 16.1455L21.3348 14.413L23.6523 13.7905ZM19.9998 14.0005V23.0005H17.5998V14.0005H19.9998ZM16.3998 14.0005V15.8005H13.9998V14.0005H16.3998ZM19.9998 26.0005H17.5998V24.2005H19.9998V26.0005ZM26.7648 25.378L24.4473 26.0005L23.9748 24.2605L26.2998 23.638L26.7648 25.378Z" fill="#FEFEFE"/>
    </svg>
    