
<svg width="148" height="227" viewBox="0 0 148 227" fill="none" xmlns="http://www.w3.org/2000/svg">
    <g filter="url(#filter0_d_1065_4341)">
    <path d="M130.723 38.8304L130.439 43.2258L131.184 43.274L131.468 38.8786L130.723 38.8304Z" fill="#4B7FD6"/>
    <path d="M131.856 20.9785L130.924 35.4241L131.669 35.4721L132.601 21.0266L131.856 20.9785Z" fill="#4B7FD6"/>
    <path d="M122.996 0.000441824H35.2395C32.9861 0.039969 30.8283 0.917652 29.1871 2.46223C27.5459 4.00681 26.5391 6.10746 26.3631 8.3543L15.023 183.419C14.9402 184.492 15.0814 185.571 15.4376 186.587C15.7938 187.602 16.3573 188.533 17.0923 189.319C17.8273 190.105 18.7178 190.73 19.7071 191.154C20.6965 191.578 21.7631 191.791 22.8394 191.781H110.581C112.838 191.743 115.001 190.866 116.646 189.32C118.292 187.774 119.302 185.67 119.48 183.419L130.812 8.3543C130.895 7.28155 130.754 6.20328 130.398 5.18804C130.041 4.17279 129.478 3.24278 128.743 2.45711C128.008 1.67144 127.117 1.0473 126.128 0.624371C125.138 0.201438 124.072 -0.0110416 122.996 0.000441824Z" fill="#4B7FD6"/>
    <path opacity="0.7" d="M120.211 0.000441824H35.2395C32.9861 0.039969 30.8283 0.917652 29.1871 2.46223C27.5459 4.00681 26.5391 6.10746 26.3631 8.3543L15.023 183.419C14.9402 184.492 15.0814 185.571 15.4376 186.587C15.7938 187.602 16.3573 188.533 17.0923 189.319C17.8273 190.105 18.7178 190.73 19.7071 191.154C20.6965 191.578 21.7631 191.791 22.8394 191.781H107.796C110.054 191.743 112.216 190.866 113.862 189.32C115.507 187.774 116.517 185.67 116.695 183.419L128.028 8.3543C128.111 7.28155 127.969 6.20328 127.613 5.18804C127.257 4.17279 126.693 3.24278 125.958 2.45711C125.223 1.67144 124.332 1.0473 123.343 0.624371C122.354 0.201438 121.287 -0.0110416 120.211 0.000441824Z" fill="#2B304A"/>
    <path d="M113.045 178.843H19.577C19.2275 178.844 18.8815 178.773 18.5605 178.634C18.2395 178.496 17.9504 178.293 17.711 178.038C17.4716 177.783 17.2871 177.482 17.1689 177.153C17.0507 176.824 17.0014 176.475 17.0238 176.126L27.2814 17.7085C27.3231 17.0615 27.6094 16.4546 28.0822 16.011C28.5549 15.5673 29.1788 15.3201 29.8271 15.3196H123.302C123.652 15.3199 123.998 15.3919 124.319 15.5312C124.64 15.6705 124.929 15.8741 125.169 16.1294C125.408 16.3848 125.592 16.6864 125.71 17.0158C125.828 17.3452 125.878 17.6953 125.855 18.0445L115.598 176.454C115.556 177.102 115.269 177.71 114.794 178.154C114.32 178.598 113.694 178.844 113.045 178.843Z" fill="#2B304A"/>
    <path d="M92.2757 10.1386H58.3003C58.1255 10.1401 57.9523 10.1053 57.7917 10.0364C57.631 9.96748 57.4865 9.86592 57.3671 9.73817C57.2478 9.61042 57.1563 9.45927 57.0985 9.2943C57.0407 9.12933 57.0178 8.95415 57.0312 8.77985C57.0656 8.41778 57.231 8.08071 57.4962 7.83191C57.7615 7.58312 58.1085 7.43971 58.4721 7.42861H92.4474C92.6218 7.426 92.7949 7.45983 92.9555 7.52792C93.1162 7.596 93.2608 7.69685 93.3803 7.82402C93.4997 7.9512 93.5913 8.10189 93.6492 8.26647C93.7071 8.43105 93.73 8.60591 93.7165 8.77985C93.6838 9.14327 93.5192 9.48214 93.2538 9.73247C92.9883 9.9828 92.6404 10.1273 92.2757 10.1386Z" fill="#2B304A"/>
    <path d="M65.7583 185.495C65.7037 186.389 65.3121 187.23 64.6625 187.848C64.0129 188.466 63.1534 188.815 62.257 188.824C61.8265 188.828 61.3999 188.743 61.0036 188.575C60.6073 188.407 60.2499 188.159 59.9536 187.847C59.6573 187.534 59.4286 187.164 59.2816 186.76C59.1346 186.355 59.0725 185.924 59.0992 185.495C59.1557 184.601 59.548 183.762 60.1974 183.146C60.8468 182.53 61.7053 182.182 62.6005 182.173C63.0306 182.168 63.4571 182.251 63.8534 182.419C64.2497 182.586 64.6072 182.833 64.9036 183.145C65.1999 183.457 65.4288 183.827 65.5759 184.231C65.723 184.635 65.7851 185.065 65.7583 185.495Z" fill="#2B304A"/>
    <path opacity="0.2" d="M102.862 59.1719H23.0484L17.9719 137.485H102.862C105.077 137.481 107.2 136.599 108.767 135.034C110.334 133.468 111.217 131.346 111.223 129.131V67.5556C111.225 65.3354 110.345 63.2052 108.778 61.6331C107.21 60.0611 105.082 59.1758 102.862 59.1719Z" fill="#4B7FD6"/>
    </g>
    <defs>
    <filter id="filter0_d_1065_4341" x="0" y="0" width="147.601" height="226.781" filterUnits="userSpaceOnUse" color-interpolation-filters="sRGB">
    <feFlood flood-opacity="0" result="BackgroundImageFix"/>
    <feColorMatrix in="SourceAlpha" type="matrix" values="0 0 0 0 0 0 0 0 0 0 0 0 0 0 0 0 0 0 127 0" result="hardAlpha"/>
    <feOffset dy="20"/>
    <feGaussianBlur stdDeviation="7.5"/>
    <feComposite in2="hardAlpha" operator="out"/>
    <feColorMatrix type="matrix" values="0 0 0 0 0 0 0 0 0 0 0 0 0 0 0 0 0 0 0.25 0"/>
    <feBlend mode="normal" in2="BackgroundImageFix" result="effect1_dropShadow_1065_4341"/>
    <feBlend mode="normal" in="SourceGraphic" in2="effect1_dropShadow_1065_4341" result="shape"/>
    </filter>
    </defs>
    </svg>
    