<svg width="29" height="23" viewBox="0 0 29 23" fill="none" xmlns="http://www.w3.org/2000/svg">
    <path d="M10.4423 4.69209C10.5918 4.27837 10.3709 3.82494 9.94609 3.67931C9.52129 3.53368 9.0557 3.74881 8.90617 4.16253L8.54254 5.16208L8.20609 4.17577C8.06336 3.75874 7.60117 3.53368 7.17297 3.67269C6.74477 3.8117 6.51367 4.26182 6.65641 4.67885L6.93848 5.5063L6.0073 4.84434C5.64367 4.58618 5.13391 4.66562 4.86883 5.01976C4.60375 5.3739 4.68531 5.87037 5.04895 6.12853L6.0107 6.81034H5.25625C4.35566 6.81034 3.625 7.52194 3.625 8.39903V18.9903C3.625 19.8674 4.35566 20.579 5.25625 20.579H10.4423C10.2587 20.2678 10.15 19.9071 10.15 19.5198V12.106C10.15 11.1163 10.8467 10.2856 11.788 10.0539C11.8492 9.02788 12.3692 8.12763 13.1508 7.53518C12.8586 7.09829 12.3556 6.81034 11.7812 6.81034H11.0268L11.9886 6.12853C12.3522 5.87037 12.4337 5.3739 12.1687 5.01976C11.9036 4.66562 11.3938 4.58618 11.0302 4.84434L10.167 5.45665L10.4423 4.69209ZM15.9783 9.77258L16.9843 11.0468H15.3156C14.8636 11.0468 14.5 10.6927 14.5 10.2525C14.5 9.81892 14.867 9.45815 15.3224 9.45815C15.5807 9.45815 15.822 9.574 15.9783 9.77258ZM12.8687 10.2525C12.8687 10.5305 12.9163 10.7986 13.0081 11.0468H12.8687C11.9682 11.0468 11.2375 11.7584 11.2375 12.6355V15.2833H17.7625V12.106H18.85V15.2833H25.375V12.6355C25.375 11.7584 24.6443 11.0468 23.7437 11.0468H23.6044C23.6962 10.7986 23.7437 10.5305 23.7437 10.2525C23.7437 8.9319 22.6393 7.86947 21.2901 7.86947C20.5288 7.86947 19.8084 8.21368 19.3428 8.80282L18.3062 10.1135L17.2697 8.80282C16.8041 8.21368 16.0803 7.86947 15.3224 7.86947C13.9732 7.86947 12.8687 8.9319 12.8687 10.2525ZM11.2375 18.9903C11.2375 19.8674 11.9682 20.579 12.8687 20.579H17.7625V16.3425H11.2375V18.9903ZM18.85 20.579H23.7437C24.6443 20.579 25.375 19.8674 25.375 18.9903V16.3425H18.85V20.579ZM22.1125 10.2525C22.1125 10.6927 21.7489 11.0468 21.2969 11.0468H19.6282L20.6342 9.77258C20.7905 9.57731 21.0318 9.45815 21.2901 9.45815C21.7455 9.45815 22.1125 9.81892 22.1125 10.2525Z" fill="#FEFEFE"/>
    </svg>
    