<svg width="28" height="28" viewBox="0 0 28 28" fill="none" xmlns="http://www.w3.org/2000/svg">
    <path fill-rule="evenodd" clip-rule="evenodd" d="M10.1575 8.16667V9.33333H8.68276C8.19847 9.33345 7.73181 9.52496 7.37484 9.87008C7.01787 10.2152 6.79651 10.6889 6.75445 11.1977L5.84063 22.281C5.81733 22.5629 5.84983 22.8467 5.93608 23.1147C6.02232 23.3826 6.16043 23.6286 6.34164 23.8373C6.52284 24.0459 6.74319 24.2126 6.98871 24.3267C7.23422 24.4407 7.49954 24.4998 7.76784 24.5H21.3977C21.6661 24.4999 21.9315 24.441 22.1772 24.327C22.4228 24.213 22.6433 24.0464 22.8246 23.8377C23.0059 23.6291 23.1441 23.3829 23.2305 23.1149C23.3168 22.8469 23.3493 22.563 23.326 22.281L22.4122 11.1977C22.3701 10.6887 22.1486 10.2148 21.7914 9.86969C21.4342 9.52453 20.9672 9.33315 20.4828 9.33333H19.008V8.16667C19.008 6.92899 18.5418 5.742 17.7119 4.86683C16.882 3.99167 15.7564 3.5 14.5828 3.5C13.4091 3.5 12.2835 3.99167 11.4536 4.86683C10.6237 5.742 10.1575 6.92899 10.1575 8.16667ZM14.5828 5.25C13.8492 5.25 13.1457 5.55729 12.627 6.10427C12.1084 6.65125 11.817 7.39312 11.817 8.16667V9.33333H17.3486V8.16667C17.3486 7.39312 17.0572 6.65125 16.5385 6.10427C16.0198 5.55729 15.3163 5.25 14.5828 5.25ZM11.817 14C11.817 14.7735 12.1084 15.5154 12.627 16.0624C13.1457 16.6094 13.8492 16.9167 14.5828 16.9167C15.3163 16.9167 16.0198 16.6094 16.5385 16.0624C17.0572 15.5154 17.3486 14.7735 17.3486 14V12.5417C17.3486 12.3096 17.436 12.087 17.5916 11.9229C17.7472 11.7589 17.9582 11.6667 18.1783 11.6667C18.3984 11.6667 18.6094 11.7589 18.765 11.9229C18.9206 12.087 19.008 12.3096 19.008 12.5417V14C19.008 15.2377 18.5418 16.4247 17.7119 17.2998C16.882 18.175 15.7564 18.6667 14.5828 18.6667C13.4091 18.6667 12.2835 18.175 11.4536 17.2998C10.6237 16.4247 10.1575 15.2377 10.1575 14V12.5417C10.1575 12.3096 10.2449 12.087 10.4005 11.9229C10.5561 11.7589 10.7672 11.6667 10.9872 11.6667C11.2073 11.6667 11.4183 11.7589 11.5739 11.9229C11.7295 12.087 11.817 12.3096 11.817 12.5417V14Z" fill="#FEFEFE"/>
    </svg>
    