<svg width="73" height="91" viewBox="0 0 73 91" fill="none" xmlns="http://www.w3.org/2000/svg">
    <g filter="url(#filter0_i_1126_4533)">
    <path d="M6.22949 0H65.5598C67.2725 0 68.915 0.684819 70.1261 1.90381C71.3371 3.12279 72.0175 4.77609 72.0175 6.5V78H6.22949V0Z" fill="url(#paint0_linear_1126_4533)"/>
    <path d="M6.22949 0H65.5598C67.2725 0 68.915 0.684819 70.1261 1.90381C71.3371 3.12279 72.0175 4.77609 72.0175 6.5V78H6.22949V0Z" fill="url(#paint1_linear_1126_4533)"/>
    </g>
    <path d="M2.59668 79.625H72.0171V87.75H70.4027L68.7883 89.375H2.59668V79.625Z" fill="url(#paint2_linear_1126_4533)"/>
    <path d="M2.59668 79.625H72.0171V87.75H70.4027L68.7883 89.375H2.59668V79.625Z" fill="url(#paint3_linear_1126_4533)"/>
    <path d="M5.82571 0C4.54119 0 3.30928 0.513615 2.40099 1.42785C1.49269 2.34209 0.982422 3.58207 0.982422 4.875V84.5H4.21128C4.21128 83.638 4.55146 82.8114 5.15699 82.2019C5.76252 81.5924 6.58379 81.25 7.44014 81.25H10.669V0H5.82571Z" fill="url(#paint4_linear_1126_4533)"/>
    <g filter="url(#filter1_i_1126_4533)">
    <path d="M5.82571 78C4.54119 78 3.30928 78.5136 2.40099 79.4279C1.49269 80.3421 0.982422 81.5821 0.982422 82.875V86.125C0.982422 87.4179 1.49269 88.6579 2.40099 89.5721C3.30928 90.4864 4.54119 91 5.82571 91H68.4914C70.5966 91 72.0173 89.9145 72.0173 87.75H7.44014C6.58379 87.75 5.76252 87.4076 5.15699 86.7981C4.55146 86.1886 4.21128 85.362 4.21128 84.5C4.21128 83.638 4.55146 82.8114 5.15699 82.2019C5.76252 81.5924 6.58379 81.25 7.44014 81.25H72.0173V78H5.82571Z" fill="url(#paint5_linear_1126_4533)"/>
    </g>
    <defs>
    <filter id="filter0_i_1126_4533" x="6.22949" y="0" width="65.7881" height="78.075" filterUnits="userSpaceOnUse" color-interpolation-filters="sRGB">
    <feFlood flood-opacity="0" result="BackgroundImageFix"/>
    <feBlend mode="normal" in="SourceGraphic" in2="BackgroundImageFix" result="shape"/>
    <feColorMatrix in="SourceAlpha" type="matrix" values="0 0 0 0 0 0 0 0 0 0 0 0 0 0 0 0 0 0 127 0" result="hardAlpha"/>
    <feOffset dy="0.075"/>
    <feGaussianBlur stdDeviation="0.1875"/>
    <feComposite in2="hardAlpha" operator="arithmetic" k2="-1" k3="1"/>
    <feColorMatrix type="matrix" values="0 0 0 0 0.623529 0 0 0 0 0.858824 0 0 0 0 0.290196 0 0 0 1 0"/>
    <feBlend mode="normal" in2="shape" result="effect1_innerShadow_1126_4533"/>
    </filter>
    <filter id="filter1_i_1126_4533" x="0.982422" y="78" width="71.0347" height="13.075" filterUnits="userSpaceOnUse" color-interpolation-filters="sRGB">
    <feFlood flood-opacity="0" result="BackgroundImageFix"/>
    <feBlend mode="normal" in="SourceGraphic" in2="BackgroundImageFix" result="shape"/>
    <feColorMatrix in="SourceAlpha" type="matrix" values="0 0 0 0 0 0 0 0 0 0 0 0 0 0 0 0 0 0 127 0" result="hardAlpha"/>
    <feOffset dy="0.075"/>
    <feGaussianBlur stdDeviation="0.1125"/>
    <feComposite in2="hardAlpha" operator="arithmetic" k2="-1" k3="1"/>
    <feColorMatrix type="matrix" values="0 0 0 0 0.113725 0 0 0 0 0.435294 0 0 0 0 0.439216 0 0 0 1 0"/>
    <feBlend mode="normal" in2="shape" result="effect1_innerShadow_1126_4533"/>
    </filter>
    <linearGradient id="paint0_linear_1126_4533" x1="41.3433" y1="0" x2="41.3433" y2="78" gradientUnits="userSpaceOnUse">
    <stop stop-color="#E05151"/>
    <stop offset="1" stop-color="#EDC6C6"/>
    </linearGradient>
    <linearGradient id="paint1_linear_1126_4533" x1="72.5212" y1="11.4757" x2="66.1651" y2="12.3806" gradientUnits="userSpaceOnUse">
    <stop offset="0.014" stop-color="#FA7C84"/>
    <stop offset="1" stop-color="#ED5B5B" stop-opacity="0"/>
    </linearGradient>
    <linearGradient id="paint2_linear_1126_4533" x1="6.53912" y1="85.852" x2="71.4327" y2="85.852" gradientUnits="userSpaceOnUse">
    <stop stop-color="#D5BCEB"/>
    <stop offset="1" stop-color="#E3D3F2"/>
    </linearGradient>
    <linearGradient id="paint3_linear_1126_4533" x1="37.3069" y1="80.3985" x2="37.3069" y2="85.0103" gradientUnits="userSpaceOnUse">
    <stop stop-color="#9F84AE"/>
    <stop offset="1" stop-color="#C5B1D6" stop-opacity="0"/>
    </linearGradient>
    <linearGradient id="paint4_linear_1126_4533" x1="1.64434" y1="47.8985" x2="9.25799" y2="47.937" gradientUnits="userSpaceOnUse">
    <stop stop-color="#B33B3B"/>
    <stop offset="1" stop-color="#B56E6E"/>
    </linearGradient>
    <linearGradient id="paint5_linear_1126_4533" x1="5.60292" y1="87.633" x2="72.0173" y2="87.5303" gradientUnits="userSpaceOnUse">
    <stop stop-color="#762E2E"/>
    <stop offset="1" stop-color="#722E2E"/>
    </linearGradient>
    </defs>
    </svg>
    