<svg width="40" height="40" viewBox="0 0 40 40" fill="none" xmlns="http://www.w3.org/2000/svg">
    <rect width="40" height="40" rx="10" fill="#FF8700"/>
    <path d="M20 18.2222H18.25V12H16.5V18.2222H14.75V12H13V19.1111C13 20.5813 14.1777 21.7778 15.625 21.7778H16.5V28H18.25V21.7778H19.125C20.5722 21.7778 21.75 20.5813 21.75 19.1111V12H20V18.2222ZM26.125 12H25.25C24.2359 12 23.5 13.1218 23.5 14.6667V21.7778H25.25V28H27V12.8889C27 12.6531 26.9078 12.427 26.7437 12.2603C26.5796 12.0937 26.3571 12 26.125 12Z" fill="#FEFEFE"/>
    </svg>
    