<svg width="40" height="40" viewBox="0 0 40 40" fill="none" xmlns="http://www.w3.org/2000/svg">
    <rect width="40" height="40" rx="10" fill="#B548C6"/>
    <path d="M15.8956 12.1264C16.0469 11.687 15.8234 11.2054 15.3938 11.0507C14.9641 10.896 14.4931 11.1245 14.3419 11.5639L13.9741 12.6255L13.6338 11.578C13.4894 11.135 13.0219 10.896 12.5888 11.0436C12.1556 11.1913 11.9219 11.6694 12.0662 12.1123L12.3516 12.9911L11.4097 12.2881C11.0419 12.0139 10.5263 12.0982 10.2581 12.4744C9.99 12.8505 10.0725 13.3778 10.4403 13.652L11.4131 14.3762H10.65C9.73906 14.3762 9 15.132 9 16.0636V27.3126C9 28.2442 9.73906 29 10.65 29H15.8956C15.71 28.6696 15.6 28.2864 15.6 27.8751V20.0007C15.6 18.9496 16.3047 18.0673 17.2569 17.8212C17.3188 16.7315 17.8447 15.7753 18.6353 15.146C18.3397 14.682 17.8309 14.3762 17.25 14.3762H16.4869L17.4597 13.652C17.8275 13.3778 17.91 12.8505 17.6419 12.4744C17.3737 12.0982 16.8581 12.0139 16.4903 12.2881L15.6172 12.9384L15.8956 12.1264ZM21.4953 17.5224L22.5128 18.8758H20.825C20.3678 18.8758 20 18.4997 20 18.0321C20 17.5716 20.3713 17.1885 20.8319 17.1885C21.0931 17.1885 21.3372 17.3115 21.4953 17.5224ZM18.35 18.0321C18.35 18.3274 18.3981 18.6122 18.4909 18.8758H18.35C17.4391 18.8758 16.7 19.6316 16.7 20.5632V23.3755H23.3V20.0007H24.4V23.3755H31V20.5632C31 19.6316 30.2609 18.8758 29.35 18.8758H29.2091C29.3019 18.6122 29.35 18.3274 29.35 18.0321C29.35 16.6295 28.2328 15.5011 26.8681 15.5011C26.0981 15.5011 25.3694 15.8667 24.8984 16.4924L23.85 17.8845L22.8016 16.4924C22.3306 15.8667 21.5984 15.5011 20.8319 15.5011C19.4672 15.5011 18.35 16.6295 18.35 18.0321ZM16.7 27.3126C16.7 28.2442 17.4391 29 18.35 29H23.3V24.5004H16.7V27.3126ZM24.4 29H29.35C30.2609 29 31 28.2442 31 27.3126V24.5004H24.4V29ZM27.7 18.0321C27.7 18.4997 27.3322 18.8758 26.875 18.8758H25.1872L26.2047 17.5224C26.3628 17.315 26.6069 17.1885 26.8681 17.1885C27.3288 17.1885 27.7 17.5716 27.7 18.0321Z" fill="#FEFEFE"/>
    </svg>
    