<svg width="40" height="40" viewBox="0 0 40 40" fill="none" xmlns="http://www.w3.org/2000/svg">
    <rect width="40" height="40" rx="10" fill="#FF2752"/>
    <path d="M24.9267 10.5C25.6999 10.5 26.4252 10.6484 27.1026 10.9451C27.7801 11.2418 28.3685 11.6515 28.868 12.1743C29.3675 12.6971 29.7644 13.3081 30.0587 14.0075C30.3529 14.7069 30.5 15.4558 30.5 16.254C30.5 16.6638 30.4589 17.07 30.3768 17.4727C30.2947 17.8753 30.1716 18.2639 30.0073 18.6383H25.2551L23.2845 16.519L20 19.9099L15.4018 15.1626L12.1173 18.6383H9.99267C9.82845 18.2639 9.70528 17.8753 9.62317 17.4727C9.54106 17.07 9.5 16.6638 9.5 16.254C9.5 15.4558 9.6437 14.7069 9.93109 14.0075C10.2185 13.3081 10.6153 12.7006 11.1217 12.1849C11.6281 11.6692 12.2199 11.2594 12.8974 10.9557C13.5748 10.6519 14.3001 10.5 15.0733 10.5C15.8192 10.5 16.5308 10.6448 17.2082 10.9345C17.8856 11.2241 18.4912 11.6409 19.0249 12.1849L20 13.2022L20.9751 12.1849C21.502 11.6409 22.1041 11.2241 22.7815 10.9345C23.4589 10.6448 24.174 10.5 24.9267 10.5ZM23.9413 19.9947H29.176L29.0323 20.1642C28.9844 20.2208 28.933 20.2808 28.8783 20.3444L20 29.5L11.1217 20.3444C11.067 20.2879 11.0156 20.2314 10.9677 20.1748C10.9198 20.1183 10.8719 20.0583 10.824 19.9947H13.4311L15.4018 18.0449L20 22.7922L23.2845 19.4013L23.9413 19.9947Z" fill="#FEFEFE"/>
    </svg>
    