<svg width="40" height="40" viewBox="0 0 40 40" fill="none" xmlns="http://www.w3.org/2000/svg">
    <rect width="40" height="40" rx="10" fill="#4B7FD6"/>
    <g clip-path="url(#clip0_1544_6554)">
    <path d="M18.8235 12.763C18.0352 12.763 17.2793 13.068 16.7219 13.6109C16.1645 14.1537 15.8514 14.89 15.8514 15.6577C15.8514 16.4255 16.1645 17.1618 16.7219 17.7046C17.2793 18.2475 18.0352 18.5525 18.8235 18.5525C19.6118 18.5525 20.3677 18.2475 20.9251 17.7046C21.4825 17.1618 21.7956 16.4255 21.7956 15.6577C21.7956 14.89 21.4825 14.1537 20.9251 13.6109C20.3677 13.068 19.6118 12.763 18.8235 12.763ZM17.3374 15.6577C17.3374 15.2739 17.494 14.9057 17.7727 14.6343C18.0514 14.3629 18.4294 14.2104 18.8235 14.2104C19.2176 14.2104 19.5956 14.3629 19.8743 14.6343C20.153 14.9057 20.3096 15.2739 20.3096 15.6577C20.3096 16.0416 20.153 16.4098 19.8743 16.6812C19.5956 16.9526 19.2176 17.1051 18.8235 17.1051C18.4294 17.1051 18.0514 16.9526 17.7727 16.6812C17.494 16.4098 17.3374 16.0416 17.3374 15.6577ZM8.42102 10.592C8.42102 10.0162 8.65587 9.46394 9.07391 9.05679C9.49195 8.64963 10.0589 8.4209 10.6501 8.4209H26.9969C27.5881 8.4209 28.155 8.64963 28.5731 9.05679C28.9911 9.46394 29.226 10.0162 29.226 10.592V15.6577H27.7399V14.2104H26.2538C25.4656 14.2104 24.7096 13.9054 24.1522 13.3625C23.5948 12.8197 23.2817 12.0834 23.2817 11.3156V9.86827H14.3653V11.3156C14.3653 12.0834 14.0522 12.8197 13.4948 13.3625C12.9374 13.9054 12.1814 14.2104 11.3932 14.2104H9.90709V17.1051H11.3932C12.1814 17.1051 12.9374 17.4101 13.4948 17.953C14.0522 18.4958 14.3653 19.2321 14.3653 19.9998V21.4472H21.7956V22.8946H10.6501C10.0589 22.8946 9.49195 22.6658 9.07391 22.2587C8.65587 21.8515 8.42102 21.2993 8.42102 20.7235V10.592ZM10.6501 9.86827C10.4531 9.86827 10.2641 9.94451 10.1247 10.0802C9.98537 10.2159 9.90709 10.4 9.90709 10.592V12.763H11.3932C11.7873 12.763 12.1653 12.6105 12.444 12.3391C12.7227 12.0676 12.8792 11.6995 12.8792 11.3156V9.86827H10.6501ZM26.9969 9.86827H24.7678V11.3156C24.7678 11.6995 24.9243 12.0676 25.203 12.3391C25.4817 12.6105 25.8597 12.763 26.2538 12.763H27.7399V10.592C27.7399 10.4 27.6616 10.2159 27.5223 10.0802C27.3829 9.94451 27.1939 9.86827 26.9969 9.86827ZM10.6501 21.4472H12.8792V19.9998C12.8792 19.616 12.7227 19.2478 12.444 18.9764C12.1653 18.705 11.7873 18.5525 11.3932 18.5525H9.90709V20.7235C9.90709 20.9155 9.98537 21.0995 10.1247 21.2353C10.2641 21.371 10.4531 21.4472 10.6501 21.4472ZM30.712 15.6577V11.4387C31.1468 11.5884 31.5232 11.8658 31.7894 12.2326C32.0556 12.5994 32.1984 13.0375 32.1981 13.4867V15.6577H30.712ZM21.7956 24.342V25.7893H13.6223C13.1611 25.7896 12.7112 25.6505 12.3346 25.3913C11.958 25.132 11.6732 24.7654 11.5195 24.342H21.7956ZM25.5108 17.1051C24.9196 17.1051 24.3526 17.3338 23.9346 17.741C23.5166 18.1481 23.2817 18.7004 23.2817 19.2762V29.4077C23.2817 29.9835 23.5166 30.5358 23.9346 30.9429C24.3526 31.3501 24.9196 31.5788 25.5108 31.5788H31.4551C32.0463 31.5788 32.6133 31.3501 33.0313 30.9429C33.4493 30.5358 33.6842 29.9835 33.6842 29.4077V19.2762C33.6842 18.7004 33.4493 18.1481 33.0313 17.741C32.6133 17.3338 32.0463 17.1051 31.4551 17.1051H25.5108ZM25.5108 22.8946H26.9969C27.1939 22.8946 27.3829 22.9708 27.5223 23.1065C27.6616 23.2423 27.7399 23.4263 27.7399 23.6183C27.7399 23.8102 27.6616 23.9943 27.5223 24.13C27.3829 24.2657 27.1939 24.342 26.9969 24.342H25.5108C25.3137 24.342 25.1247 24.2657 24.9854 24.13C24.8461 23.9943 24.7678 23.8102 24.7678 23.6183C24.7678 23.4263 24.8461 23.2423 24.9854 23.1065C25.1247 22.9708 25.3137 22.8946 25.5108 22.8946ZM29.969 22.8946H31.4551C31.6521 22.8946 31.8411 22.9708 31.9805 23.1065C32.1198 23.2423 32.1981 23.4263 32.1981 23.6183C32.1981 23.8102 32.1198 23.9943 31.9805 24.13C31.8411 24.2657 31.6521 24.342 31.4551 24.342H29.969C29.7719 24.342 29.5829 24.2657 29.4436 24.13C29.3043 23.9943 29.226 23.8102 29.226 23.6183C29.226 23.4263 29.3043 23.2423 29.4436 23.1065C29.5829 22.9708 29.7719 22.8946 29.969 22.8946ZM25.5108 25.7893H26.9969C27.1939 25.7893 27.3829 25.8656 27.5223 26.0013C27.6616 26.137 27.7399 26.3211 27.7399 26.513C27.7399 26.7049 27.6616 26.889 27.5223 27.0247C27.3829 27.1604 27.1939 27.2367 26.9969 27.2367H25.5108C25.3137 27.2367 25.1247 27.1604 24.9854 27.0247C24.8461 26.889 24.7678 26.7049 24.7678 26.513C24.7678 26.3211 24.8461 26.137 24.9854 26.0013C25.1247 25.8656 25.3137 25.7893 25.5108 25.7893ZM29.969 25.7893H31.4551C31.6521 25.7893 31.8411 25.8656 31.9805 26.0013C32.1198 26.137 32.1981 26.3211 32.1981 26.513C32.1981 26.7049 32.1198 26.889 31.9805 27.0247C31.8411 27.1604 31.6521 27.2367 31.4551 27.2367H29.969C29.7719 27.2367 29.5829 27.1604 29.4436 27.0247C29.3043 26.889 29.226 26.7049 29.226 26.513C29.226 26.3211 29.3043 26.137 29.4436 26.0013C29.5829 25.8656 29.7719 25.7893 29.969 25.7893ZM25.5108 28.6841H26.9969C27.1939 28.6841 27.3829 28.7603 27.5223 28.896C27.6616 29.0317 27.7399 29.2158 27.7399 29.4077C27.7399 29.5997 27.6616 29.7837 27.5223 29.9195C27.3829 30.0552 27.1939 30.1314 26.9969 30.1314H25.5108C25.3137 30.1314 25.1247 30.0552 24.9854 29.9195C24.8461 29.7837 24.7678 29.5997 24.7678 29.4077C24.7678 29.2158 24.8461 29.0317 24.9854 28.896C25.1247 28.7603 25.3137 28.6841 25.5108 28.6841ZM29.969 28.6841H31.4551C31.6521 28.6841 31.8411 28.7603 31.9805 28.896C32.1198 29.0317 32.1981 29.2158 32.1981 29.4077C32.1981 29.5997 32.1198 29.7837 31.9805 29.9195C31.8411 30.0552 31.6521 30.1314 31.4551 30.1314H29.969C29.7719 30.1314 29.5829 30.0552 29.4436 29.9195C29.3043 29.7837 29.226 29.5997 29.226 29.4077C29.226 29.2158 29.3043 29.0317 29.4436 28.896C29.5829 28.7603 29.7719 28.6841 29.969 28.6841ZM24.7678 19.2762C24.7678 19.0842 24.8461 18.9002 24.9854 18.7644C25.1247 18.6287 25.3137 18.5525 25.5108 18.5525H31.4551C31.6521 18.5525 31.8411 18.6287 31.9805 18.7644C32.1198 18.9002 32.1981 19.0842 32.1981 19.2762V20.7235C32.1981 20.9155 32.1198 21.0995 31.9805 21.2353C31.8411 21.371 31.6521 21.4472 31.4551 21.4472H25.5108C25.3137 21.4472 25.1247 21.371 24.9854 21.2353C24.8461 21.0995 24.7678 20.9155 24.7678 20.7235V19.2762Z" fill="white"/>
    </g>
    <defs>
    <clipPath id="clip0_1544_6554">
    <rect width="25.2632" height="25.2632" fill="white" transform="translate(7.89471 7.36816)"/>
    </clipPath>
    </defs>
    </svg>
    