<svg width="40" height="40" viewBox="0 0 40 40" fill="none" xmlns="http://www.w3.org/2000/svg">
    <rect width="40" height="40" rx="10" fill="#32A7E2"/>
    <path fill-rule="evenodd" clip-rule="evenodd" d="M15.6948 13.8889V15.1111H14.0937C13.5679 15.1112 13.0612 15.3119 12.6737 15.6734C12.2861 16.035 12.0458 16.5312 12.0001 17.0642L11.0079 28.6753C10.9826 28.9706 11.0179 29.268 11.1116 29.5487C11.2052 29.8294 11.3552 30.0872 11.5519 30.3057C11.7486 30.5243 11.9879 30.6989 12.2544 30.8184C12.521 30.9379 12.8091 30.9998 13.1003 31H27.8985C28.1898 30.9999 28.478 30.9382 28.7447 30.8188C29.0114 30.6993 29.2508 30.5248 29.4477 30.3062C29.6446 30.0876 29.7946 29.8297 29.8883 29.549C29.982 29.2682 30.0174 28.9707 29.9921 28.6753L28.9999 17.0642C28.9542 16.531 28.7137 16.0346 28.3259 15.673C27.9381 15.3114 27.4311 15.1109 26.9051 15.1111H25.304V13.8889C25.304 12.5923 24.7978 11.3488 23.8968 10.4319C22.9957 9.51508 21.7737 9 20.4994 9C19.2251 9 18.0031 9.51508 17.102 10.4319C16.201 11.3488 15.6948 12.5923 15.6948 13.8889ZM20.4994 10.8333C19.703 10.8333 18.9392 11.1553 18.3761 11.7283C17.8129 12.3013 17.4965 13.0785 17.4965 13.8889V15.1111H23.5023V13.8889C23.5023 13.0785 23.1859 12.3013 22.6227 11.7283C22.0596 11.1553 21.2958 10.8333 20.4994 10.8333ZM17.4965 20C17.4965 20.8104 17.8129 21.5876 18.3761 22.1606C18.9392 22.7336 19.703 23.0556 20.4994 23.0556C21.2958 23.0556 22.0596 22.7336 22.6227 22.1606C23.1859 21.5876 23.5023 20.8104 23.5023 20V18.4722C23.5023 18.2291 23.5972 17.9959 23.7661 17.824C23.9351 17.6521 24.1642 17.5556 24.4031 17.5556C24.642 17.5556 24.8712 17.6521 25.0401 17.824C25.2091 17.9959 25.304 18.2291 25.304 18.4722V20C25.304 21.2966 24.7978 22.5401 23.8968 23.457C22.9957 24.3738 21.7737 24.8889 20.4994 24.8889C19.2251 24.8889 18.0031 24.3738 17.102 23.457C16.201 22.5401 15.6948 21.2966 15.6948 20V18.4722C15.6948 18.2291 15.7897 17.9959 15.9587 17.824C16.1276 17.6521 16.3568 17.5556 16.5957 17.5556C16.8346 17.5556 17.0637 17.6521 17.2327 17.824C17.4016 17.9959 17.4965 18.2291 17.4965 18.4722V20Z" fill="white"/>
    </svg>
    