<svg width="40" height="40" viewBox="0 0 40 40" fill="none" xmlns="http://www.w3.org/2000/svg">
    <rect width="40" height="40" rx="10" fill="#22B07D"/>
    <g clip-path="url(#clip0_1682_6987)">
    <path d="M27.7083 23.8182C26.5583 23.8182 25.5441 23.4602 24.6656 22.7443C23.7872 22.0284 23.2361 21.1136 23.0125 20H20.1615L19.0115 18.0909H23.0125C23.0924 17.7409 23.2003 17.4068 23.3364 17.0886C23.4719 16.7705 23.6514 16.4682 23.875 16.1818H17.8375L16.6875 14.2727H24.8812L23.8271 11.4091H20.0417V9.5H23.8271C24.2424 9.5 24.6097 9.61518 24.9292 9.84555C25.2486 10.0765 25.4802 10.383 25.624 10.7648L26.9177 14.2727H27.7083C29.034 14.2727 30.1642 14.7379 31.0989 15.6683C32.033 16.5993 32.5 17.725 32.5 19.0455C32.5 20.3659 32.033 21.4913 31.0989 22.4217C30.1642 23.3527 29.034 23.8182 27.7083 23.8182ZM27.7083 21.9091C28.5069 21.9091 29.1858 21.6307 29.7448 21.0739C30.3038 20.517 30.5833 19.8409 30.5833 19.0455C30.5833 18.25 30.3038 17.5739 29.7448 17.017C29.1858 16.4602 28.5069 16.1818 27.7083 16.1818H27.6365L28.5708 18.7352L26.75 19.3795L25.8396 16.8739C25.5201 17.1443 25.2726 17.4705 25.0969 17.8523C24.9212 18.2341 24.8333 18.6318 24.8333 19.0455C24.8333 19.8409 25.1128 20.517 25.6719 21.0739C26.2309 21.6307 26.9097 21.9091 27.7083 21.9091ZM16.2083 30.5C15.4097 30.5 14.7309 30.2216 14.1719 29.6648C13.6128 29.108 13.3333 28.4318 13.3333 27.6364H9.5V21.9091H11.4167V19.0455H9.5V17.1364H16.2083L19.0833 21.9091H21C21.5271 21.9091 21.9785 22.0959 22.3541 22.4694C22.7292 22.8436 22.9167 23.2932 22.9167 23.8182V25.7273C22.9167 26.2523 22.7292 26.7019 22.3541 27.076C21.9785 27.4496 21.5271 27.6364 21 27.6364H19.0833C19.0833 28.4318 18.8038 29.108 18.2448 29.6648C17.6858 30.2216 17.0069 30.5 16.2083 30.5ZM13.3333 21.9091H16.8552L15.1302 19.0455H13.3333V21.9091ZM16.2083 28.5909C16.4799 28.5909 16.7076 28.4993 16.8916 28.316C17.075 28.1334 17.1667 27.9068 17.1667 27.6364C17.1667 27.3659 17.075 27.1394 16.8916 26.9567C16.7076 26.7735 16.4799 26.6818 16.2083 26.6818C15.9368 26.6818 15.709 26.7735 15.525 26.9567C15.3417 27.1394 15.25 27.3659 15.25 27.6364C15.25 27.9068 15.3417 28.1334 15.525 28.316C15.709 28.4993 15.9368 28.5909 16.2083 28.5909Z" fill="#FEFEFE"/>
    </g>
    <defs>
    <clipPath id="clip0_1682_6987">
    <rect width="24" height="24" fill="white" transform="translate(8 8)"/>
    </clipPath>
    </defs>
    </svg>
    